<?xml version="1.0" encoding="UTF-8"?>
<svg version="1.1" xmlns="http://www.w3.org/2000/svg" width="1024" height="1024">
<path d="M0 0 C2.9375 2.0625 2.9375 2.0625 5 5 C5.56832657 9.47557172 5.64251277 11.77084514 3.5625 15.75 C1.21342459 20.63607686 1.25150067 25.64043405 1 31 C1.90621094 30.7834375 2.81242188 30.566875 3.74609375 30.34375 C21.95194862 26.18241174 35.61384993 29.70601442 52.44091797 37.18164062 C55.93262741 38.7328473 59.29385004 40.15040154 62.99609375 41.1171875 C63.98738281 41.40851563 64.97867188 41.69984375 66 42 C66.33 42.66 66.66 43.32 67 44 C66.33333333 45.33333333 65.66666667 46.66666667 65 48 C65 49.32 65 50.64 65 52 C64.34 52 63.68 52 63 52 C64.98 57.61 66.96 63.22 69 69 C69.66 69 70.32 69 71 69 C71.33 69.99 71.66 70.98 72 72 C71.34 72 70.68 72 70 72 C70.474375 72.598125 70.94875 73.19625 71.4375 73.8125 C73.31582264 76.44215169 73.93813507 78.58882278 74.41699219 81.77148438 C75.04770666 85.26418464 76.08825279 88.33169532 77.328125 91.65625 C77.55900818 92.28043823 77.78989136 92.90462646 78.027771 93.54772949 C78.76350525 95.53372344 79.50646435 97.51691533 80.25 99.5 C80.97475822 101.44727124 81.69798253 103.39510703 82.42102051 105.34301758 C82.89915158 106.63084882 83.37790723 107.91844836 83.8572998 109.20581055 C86.30191664 115.7812747 88.65811534 122.38731801 91 129 C91.99 128.67 92.98 128.34 94 128 C94.99 128.33 95.98 128.66 97 129 C96.18383072 136.81683255 91.6141803 142.60865933 85.97265625 147.90234375 C84.04070911 149.40581944 82.09006679 150.72707131 80 152 C79.37480469 152.39960938 78.74960937 152.79921875 78.10546875 153.2109375 C73.23359184 156.00904196 68.80137787 156.52704838 63.22265625 156.7265625 C62.12244141 156.86191406 62.12244141 156.86191406 61 157 C60.67 157.66 60.34 158.32 60 159 C60 158.34 60 157.68 60 157 C59.41734375 157.04640625 58.8346875 157.0928125 58.234375 157.140625 C46.07341006 157.67601339 35.96186451 153.1503571 27 145 C27 144.34 27 143.68 27 143 C26.34 143 25.68 143 25 143 C23.4921875 141.171875 23.4921875 141.171875 21.875 138.75 C21.33617187 137.96109375 20.79734375 137.1721875 20.2421875 136.359375 C19 134 19 134 19 130 C21.64 129.67 24.28 129.34 27 129 C26.34 128.67 25.68 128.34 25 128 C26.36014852 121.27444151 28.25813348 114.95785353 30.5625 108.5 C30.91111084 107.5109668 31.25972168 106.52193359 31.61889648 105.50292969 C32.73917103 102.3328387 33.86831159 99.16603305 35 96 C35.56460938 94.41735352 35.56460938 94.41735352 36.140625 92.80273438 C41.00973931 79.17088181 45.96883405 65.57282391 51 52 C50.17757812 51.896875 49.35515625 51.79375 48.5078125 51.6875 C44.40814298 50.8840013 40.75151917 49.52471626 36.875 48 C30.07773761 45.35592729 24.56943429 43.80441959 17.25 43.75 C16.57195312 43.729375 15.89390625 43.70875 15.1953125 43.6875 C11.36316047 43.65835816 8.32105841 44.10482812 4.74121094 45.52050781 C4.03607361 45.7959845 3.33093628 46.07146118 2.60443115 46.35528564 C2.07496887 46.56804138 1.54550659 46.78079712 1 47 C1.48277813 58.72086301 1.96953726 70.4415539 2.46098137 82.16205692 C2.68921642 87.6080446 2.91622639 93.05407681 3.14013672 98.50024414 C4.36884808 128.75149175 4.36884808 128.75149175 6.04296875 158.98046875 C6.11808685 160.19340103 6.19320496 161.40633331 6.27059937 162.65602112 C6.69029382 168.92632876 7.37709157 175.05783145 8.4375 181.25 C9.43208342 188.60196062 7.64625385 192.71709577 4 199 C3.30627692 200.38167927 2.62343801 201.76885553 1.94921875 203.16015625 C-3.60161127 214.60161127 -3.60161127 214.60161127 -6 217 C-7.88283868 213.38994187 -9.7321922 209.76468889 -11.55419922 206.12353516 C-12.17610526 204.89160254 -12.80642917 203.6638771 -13.44580078 202.44091797 C-17.72613342 194.23638711 -20.37207335 187.3457092 -19 178 C-18.67 177.67 -18.34 177.34 -18 177 C-17.78737281 175.20874666 -17.64063386 173.40963884 -17.51977539 171.60986328 C-17.4012748 169.86453812 -17.4012748 169.86453812 -17.28038025 168.08395386 C-17.19945633 166.80070221 -17.11853241 165.51745056 -17.03515625 164.1953125 C-16.99234087 163.53380314 -16.94952549 162.87229378 -16.90541267 162.19073868 C-15.85211948 145.87097778 -15.17922276 129.5356029 -14.53027344 113.19567871 C-14.40647014 110.0988043 -14.27923195 107.00207535 -14.15186119 103.90534592 C-13.37190857 84.93904405 -12.6540309 65.97109128 -12 47 C-13.65 47 -15.3 47 -17 47 C-17 46.34 -17 45.68 -17 45 C-19.34134374 44.57430114 -21.63637598 44.25947159 -24 44 C-24.80308594 43.896875 -25.60617187 43.79375 -26.43359375 43.6875 C-36.26633655 43.01803666 -44.79005219 46.71989006 -53.78686523 50.24389648 C-56.17016418 51.05813552 -58.52327718 51.55624136 -61 52 C-56.39109866 66.14779576 -51.63953064 80.19387962 -46.32666016 94.09375 C-42.20614049 104.94620727 -38.58365105 115.9606391 -35 127 C-37 129 -37 129 -38.9453125 129.1953125 C-40.96354167 129.13020833 -42.98177083 129.06510417 -45 129 C-45.42821045 127.77071777 -45.8564209 126.54143555 -46.29760742 125.27490234 C-47.90920156 120.64889754 -49.52151668 116.02314429 -51.1340332 111.39746094 C-51.82758472 109.40761904 -52.52094902 107.41771188 -53.21411133 105.42773438 C-57.10081669 94.26994337 -60.99884988 83.11735363 -65 72 C-65.66 72 -66.32 72 -67 72 C-67 70.02 -67 68.04 -67 66 C-70.27453808 73.00033735 -72.93999442 80.15379554 -75.51171875 87.4375 C-76.13225883 89.17942627 -76.13225883 89.17942627 -76.76533508 90.95654297 C-78.07604908 94.63652271 -79.38223382 98.31808474 -80.6875 102 C-82.00348757 105.71047051 -83.32099138 109.42039246 -84.64179993 113.12915039 C-85.46142906 115.4307464 -86.2783846 117.73329654 -87.092453 120.03686523 C-87.45986099 121.06884033 -87.82726898 122.10081543 -88.20581055 123.1640625 C-88.52905807 124.07623535 -88.8523056 124.9884082 -89.18534851 125.92822266 C-90 128 -90 128 -91 129 C-92.51928038 129.07179964 -94.04167482 129.08392007 -95.5625 129.0625 C-96.38878906 129.05347656 -97.21507812 129.04445313 -98.06640625 129.03515625 C-98.70449219 129.02355469 -99.34257812 129.01195312 -100 129 C-99.3078997 122.87596098 -97.16098488 117.27809993 -95.125 111.5 C-94.73223877 110.3752124 -94.33947754 109.2504248 -93.93481445 108.09155273 C-89.89835542 96.5933546 -85.70060771 85.15446439 -81.48046875 73.72265625 C-81.06273193 72.58916748 -80.64499512 71.45567871 -80.21459961 70.2878418 C-79.41509177 68.12362629 -78.61132777 65.96097757 -77.80297852 63.80004883 C-77.44002686 62.82189209 -77.0770752 61.84373535 -76.703125 60.8359375 C-76.38375977 59.98177246 -76.06439453 59.12760742 -75.73535156 58.24755859 C-74.78188849 55.33335505 -74.48270183 53.0298893 -75 50 C-75.98731742 48.65724831 -76.98594743 47.32267727 -78 46 C-77.58984375 43.8828125 -77.58984375 43.8828125 -77 42 C-76.175 41.79246094 -75.35 41.58492188 -74.5 41.37109375 C-66.1172272 39.13506395 -58.46447499 36.19101064 -50.59375 32.5859375 C-44.67444154 29.97372094 -39.39755467 28.57441315 -32.9375 28.1875 C-32.19959229 28.14181885 -31.46168457 28.0961377 -30.70141602 28.04907227 C-23.75356718 27.75461474 -17.65863356 28.95029889 -11 31 C-11.08772455 29.10333474 -11.19591301 27.20761007 -11.3125 25.3125 C-11.37050781 24.25675781 -11.42851562 23.20101563 -11.48828125 22.11328125 C-12.0435144 18.73525971 -13.16960707 16.85200759 -15 14 C-16.1714464 10.08529303 -16.36011827 6.97443767 -14.9375 3.125 C-10.72581447 -1.494268 -5.78321706 -1.57724102 0 0 Z M56 63 C55.81002441 63.58563721 55.62004883 64.17127441 55.42431641 64.7746582 C51.06871347 78.14778092 46.46332312 91.39843022 41.50244141 104.55981445 C36.32625908 116.48291725 36.32625908 116.48291725 34 129 C32.02 129.495 32.02 129.495 30 130 C49.47 130 68.94 130 89 130 C89 129.67 89 129.34 89 129 C86.36 128.67 83.72 128.34 81 128 C80.69296143 127.15405273 80.38592285 126.30810547 80.06958008 125.43652344 C78.90693906 122.23745936 77.74175552 119.03934368 76.57495117 115.84179688 C76.07461268 114.46911028 75.57523144 113.09607431 75.0769043 111.72265625 C72.24439791 103.9182882 69.32759635 96.18830725 66.04199219 88.55957031 C64.71337129 85.29591954 63.71854802 81.9820712 62.75 78.59765625 C61.86333648 75.52666021 60.91482879 72.48087312 59.9375 69.4375 C59.61652344 68.42558594 59.29554688 67.41367187 58.96484375 66.37109375 C58.24113934 63.84560944 58.24113934 63.84560944 56 63 Z " fill="#FEFEFE" transform="translate(517,289)"/>
<path d="M0 0 C1.09914734 -0.00637985 2.19829468 -0.0127597 3.33074951 -0.01933289 C4.53161194 -0.02044571 5.73247437 -0.02155853 6.96972656 -0.02270508 C8.81911835 -0.02769768 8.81911835 -0.02769768 10.70587158 -0.03279114 C13.32881293 -0.03786987 15.95176077 -0.04019917 18.57470703 -0.04003906 C22.55151068 -0.03991888 26.52812482 -0.06029092 30.50488281 -0.0793457 C33.05566312 -0.08228384 35.60644474 -0.08426582 38.15722656 -0.08520508 C39.33379822 -0.09239059 40.51036987 -0.09957611 41.72259521 -0.10697937 C61.23148462 -0.05418866 79.68598128 4.17355217 94.23535156 17.89526367 C98.89118551 22.82013457 102.09699817 27.97804451 104.86035156 34.14526367 C105.35148438 35.20100586 105.35148438 35.20100586 105.85253906 36.27807617 C111.07925031 49.36974339 109.63143645 66.3918541 104.79785156 79.27026367 C97.38432637 95.48059572 85.19491169 104.81710478 68.86035156 111.14526367 C61.97181263 113.61510396 55.16812303 114.39467604 47.91113281 114.74682617 C47.04566833 114.78915878 46.18020386 114.83149139 45.28851318 114.87510681 C34.72145867 115.32312383 24.17723372 115.0155114 13.61035156 114.70776367 C11.58172387 114.654336 9.55307788 114.60159848 7.52441406 114.54956055 C2.6361468 114.42270743 -2.25178133 114.28666681 -7.13964844 114.14526367 C-6.80964844 112.16526367 -6.47964844 110.18526367 -6.13964844 108.14526367 C-5.52476562 107.98670898 -4.90988281 107.8281543 -4.27636719 107.66479492 C-3.06400391 107.31481445 -3.06400391 107.31481445 -1.82714844 106.95776367 C-1.02664063 106.73733398 -0.22613281 106.5169043 0.59863281 106.28979492 C3.69001219 104.72541814 4.38656915 103.28169527 5.86035156 100.14526367 C6.14028276 97.33519963 6.26090215 94.75213622 6.23266602 91.94604492 C6.23631668 91.13404633 6.23996735 90.32204773 6.24372864 89.48544312 C6.2518148 86.80933523 6.23824024 84.13383655 6.22363281 81.45776367 C6.22311397 79.59358724 6.2236326 77.72941026 6.22514343 75.86523438 C6.2250538 71.96142389 6.21464175 68.05782029 6.1965332 64.15405273 C6.17384643 59.15380677 6.1733029 54.15386298 6.18005085 49.15357971 C6.1833947 45.30510784 6.17675289 41.45670468 6.16692162 37.60824585 C6.16307651 35.76468261 6.16191854 33.92111173 6.16350746 32.07754517 C6.16387893 29.49970986 6.15123497 26.92225977 6.13500977 24.34448242 C6.13748718 23.58485199 6.1399646 22.82522156 6.14251709 22.04257202 C6.10185188 17.98778517 5.79296826 14.74575219 3.86035156 11.14526367 C0.46928647 8.60196485 -3.10392162 7.36536713 -7.13964844 6.14526367 C-6.11344277 0.42783209 -5.81979677 0.02284249 0 0 Z M27.86035156 11.14526367 C27.81406016 22.69759327 27.77849863 34.24990089 27.75672722 45.80230427 C27.74627932 51.16625044 27.73210175 56.53013326 27.70947266 61.89404297 C27.68778019 67.06817945 27.67579052 72.2422549 27.67059708 77.41643333 C27.66689485 79.39284412 27.65966556 81.36925148 27.64889145 83.34563637 C27.63442434 86.10875352 27.63237161 88.87161684 27.63330078 91.63476562 C27.62611023 92.45619553 27.61891968 93.27762543 27.61151123 94.12394714 C27.62564321 97.99440244 27.66232514 99.84822404 29.86035156 103.14526367 C38.86666343 106.87800016 53.13247974 104.48538101 61.86035156 101.14526367 C62.91416016 100.76241211 62.91416016 100.76241211 63.98925781 100.37182617 C72.71943666 96.64740545 78.8292872 89.27391267 82.88769531 80.89526367 C87.93818065 66.61597982 88.12199258 49.03509277 81.86035156 35.14526367 C80.41131815 32.27142817 78.7970775 29.71241945 76.86035156 27.14526367 C76.43109375 26.54198242 76.00183594 25.93870117 75.55957031 25.31713867 C68.49567246 16.16391892 57.67385661 11.94956434 46.48535156 10.45776367 C36.92447633 9.26722465 36.92447633 9.26722465 27.86035156 11.14526367 Z " fill="#FEFEFE" transform="translate(441.1396484375,589.854736328125)"/>
<path d="M0 0 C0.97256744 -0.00960754 1.94513489 -0.01921509 2.94717407 -0.02911377 C4.01051971 -0.03336365 5.07386536 -0.03761353 6.16943359 -0.04199219 C7.81194595 -0.0505423 7.81194595 -0.0505423 9.48764038 -0.05926514 C11.81971261 -0.06874166 14.1517984 -0.07525957 16.48388672 -0.07910156 C20.00431987 -0.08869402 23.52414052 -0.1196439 27.04443359 -0.15136719 C60.00585121 -0.31005836 60.00585121 -0.31005836 73.44287109 10.16113281 C79.61126761 16.38363807 82.44639602 22.09082645 82.81787109 30.84863281 C82.6483845 39.38651986 80.21870019 47.29142078 74.29052734 53.59863281 C70.6737351 56.6572309 66.56740817 58.86814577 62.44287109 61.16113281 C61.45287109 61.82113281 60.46287109 62.48113281 59.44287109 63.16113281 C59.98923218 63.85553467 59.98923218 63.85553467 60.54663086 64.56396484 C64.60000532 69.82614939 68.03482721 75.30465347 71.38037109 81.03613281 C79.69939188 97.13101313 79.69939188 97.13101313 93.69287109 106.91113281 C95.03091797 107.27464844 95.03091797 107.27464844 96.39599609 107.64550781 C97.07146484 107.81566406 97.74693359 107.98582031 98.44287109 108.16113281 C98.44287109 110.14113281 98.44287109 112.12113281 98.44287109 114.16113281 C92.10213639 117.33150016 81.04414715 115.81191286 74.24365234 114.58300781 C62.67386507 110.58716291 57.11864887 98.66998484 51.75537109 88.53613281 C46.08038658 76.11532671 46.08038658 76.11532671 36.88037109 66.72363281 C34.21020397 66.01122647 34.21020397 66.01122647 30.44287109 66.16113281 C30.24410271 70.47318968 30.06090923 74.78577725 29.88037109 79.09863281 C29.82429688 80.31099609 29.76822266 81.52335938 29.71044922 82.77246094 C28.74446833 94.23151385 28.74446833 94.23151385 32.19287109 104.72363281 C34.84302139 106.41678439 36.35487122 106.50424391 39.44287109 106.16113281 C39.44287109 106.82113281 39.44287109 107.48113281 39.44287109 108.16113281 C40.43287109 108.16113281 41.42287109 108.16113281 42.44287109 108.16113281 C43.13037109 109.97363281 43.13037109 109.97363281 43.44287109 112.16113281 C41.87252341 114.29103451 40.97816569 115.07912778 38.33576965 115.4839325 C37.11998482 115.4472924 37.11998482 115.4472924 35.87963867 115.40991211 C34.95891068 115.38966476 34.03818268 115.36941742 33.08955383 115.34855652 C32.09884384 115.31119888 31.10813385 115.27384125 30.08740234 115.23535156 C29.07062912 115.20891068 28.0538559 115.18246979 27.00627136 115.15522766 C23.75537944 115.06738343 20.50559432 114.95826098 17.25537109 114.84863281 C15.05293693 114.78538259 12.85046256 114.72351626 10.64794922 114.66308594 C5.24568714 114.51182976 -0.15581863 114.3430943 -5.55712891 114.16113281 C-5.88712891 112.84113281 -6.21712891 111.52113281 -6.55712891 110.16113281 C-3.62199572 108.29332079 -1.24606402 107.07150395 2.13037109 106.09863281 C5.4789372 104.58674976 5.4789372 104.58674976 6.195755 102.35241699 C7.74079256 94.26218669 7.71536288 86.20719124 7.67333984 78.00488281 C7.67214457 76.45129434 7.67169562 74.89770513 7.67195129 73.34411621 C7.67039578 70.1032248 7.66217893 66.8624453 7.64868164 63.62158203 C7.63169347 59.4930496 7.62786799 55.36463965 7.62862682 51.23607635 C7.62835329 48.03252012 7.6228428 44.82898999 7.61562538 41.6254425 C7.61247122 40.1041941 7.61047903 38.58294278 7.60973167 37.06169128 C8.65743266 22.19359191 8.65743266 22.19359191 3.44287109 9.16113281 C1.19810499 8.05308083 1.19810499 8.05308083 -1.24462891 7.41113281 C-2.05287109 7.16878906 -2.86111328 6.92644531 -3.69384766 6.67675781 C-4.30873047 6.50660156 -4.92361328 6.33644531 -5.55712891 6.16113281 C-5.59984991 4.49501376 -5.59776723 2.82730396 -5.55712891 1.16113281 C-3.9501429 -0.44585319 -2.22412607 0.01768844 0 0 Z M29.44287109 10.16113281 C28.70590125 25.17297333 28.30196627 40.13128522 28.44287109 55.16113281 C31.13099599 55.2427744 33.8165941 55.30192949 36.50537109 55.34863281 C37.25753906 55.37376953 38.00970703 55.39890625 38.78466797 55.42480469 C44.87946712 55.50395792 49.47838437 54.53633008 54.36865234 50.61816406 C59.79386877 44.18431585 60.92327523 37.931733 60.68115234 29.61035156 C59.97077427 22.3085966 57.18831076 18.33985348 51.67333984 13.60644531 C46.62373446 10.33437177 41.98795767 9.92443307 36.06787109 10.03613281 C34.20001953 10.06320312 34.20001953 10.06320312 32.29443359 10.09082031 C31.35341797 10.11402344 30.41240234 10.13722656 29.44287109 10.16113281 Z " fill="#FEFEFE" transform="translate(326.55712890625,589.8388671875)"/>
<path d="M0 0 C0.495 0.99 0.495 0.99 1 2 C3.56627745 2.78438699 6.07923622 3.45490622 8.6875 4.0625 C9.75000977 4.32256836 9.75000977 4.32256836 10.83398438 4.58789062 C14.86927806 5.56038522 18.89394815 6.37277633 23 7 C24.38739991 11.16219972 23.03937641 12.57389348 21.125 16.4765625 C20.46685112 17.83857897 19.80932904 19.20089844 19.15234375 20.56347656 C18.80026855 21.28619751 18.44819336 22.00891846 18.08544922 22.75354004 C16.24034433 26.57219336 14.46748883 30.42411656 12.6875 34.2734375 C11.92188278 35.92309348 11.15609144 37.57266866 10.39013672 39.22216797 C9.59334807 40.9397432 8.79663754 42.65735467 8 44.375 C7.5888092 45.26141174 7.17761841 46.14782349 6.75396729 47.06109619 C1.07470764 59.30866936 -4.55527194 71.57725203 -10.125 83.875 C-14.15661222 92.77442441 -18.20156036 101.66584898 -22.375 110.5 C-22.73867676 111.2719873 -23.10235352 112.04397461 -23.47705078 112.83935547 C-25.87333394 117.87333394 -25.87333394 117.87333394 -27 119 C-29.97460404 119.2069804 -32.89731584 119.32453078 -35.875 119.375 C-37.11830078 119.43107422 -37.11830078 119.43107422 -38.38671875 119.48828125 C-39.18464844 119.49988281 -39.98257813 119.51148438 -40.8046875 119.5234375 C-41.90272705 119.5531665 -41.90272705 119.5531665 -43.02294922 119.58349609 C-45 119 -45 119 -46.55371094 116.90112305 C-48.1819577 113.63500956 -49.79402255 110.36621541 -51.3359375 107.05859375 C-51.6513298 106.38747055 -51.96672211 105.71634735 -52.29167175 105.02488708 C-53.32209587 102.83032233 -54.3486122 100.63395505 -55.375 98.4375 C-56.09739913 96.89656474 -56.81997618 95.35571287 -57.54272461 93.81494141 C-62.42687911 83.39530306 -67.28020555 72.96137369 -72.11669922 62.51953125 C-77.00520755 51.96944816 -81.94185423 41.44216694 -86.88891602 30.91943359 C-90.31079075 23.63603424 -93.69388306 16.3368753 -97 9 C-78.43514206 0.36518236 -78.43514206 0.36518236 -72 2 C-66.97440663 7.59262478 -64.25493551 15.61848764 -61.1875 22.375 C-60.05320859 24.84948337 -58.91788628 27.32347014 -57.78125 29.796875 C-57.48381393 30.44544464 -57.18637787 31.09401428 -56.87992859 31.76223755 C-54.487804 36.96836457 -52.04827824 42.15116495 -49.59375 47.328125 C-49.04271355 48.49168015 -49.04271355 48.49168015 -48.48054504 49.67874146 C-47.0215653 52.75873602 -45.56222557 55.83853427 -44.09628296 58.91522217 C-43.07514435 61.05909009 -42.05864629 63.20510326 -41.04296875 65.3515625 C-40.73423828 65.99611389 -40.42550781 66.64066528 -40.10742188 67.30474854 C-38 71.77274474 -38 71.77274474 -38 74 C-37.01 74.495 -37.01 74.495 -36 75 C-36.33 75.66 -36.66 76.32 -37 77 C-36.34 77 -35.68 77 -35 77 C-34.82621826 76.44965088 -34.65243652 75.89930176 -34.47338867 75.33227539 C-32.71059531 69.88169282 -30.66488261 64.65818013 -28.3125 59.4375 C-27.86100586 58.41172852 -27.86100586 58.41172852 -27.40039062 57.36523438 C-25.16033039 52.35091117 -22.73222485 47.4390798 -20.26171875 42.53515625 C-15.84526169 33.7654634 -11.66106995 24.89304176 -7.5 16 C-6.76580929 14.43480937 -6.03143503 12.86970483 -5.296875 11.3046875 C-3.52914526 7.53744135 -1.76385852 3.76906014 0 0 Z " fill="#FEFEFE" transform="translate(548,443)"/>
<path d="M0 0 C0.93147543 4.03970055 1.11896177 7.92141587 1.09765625 12.0546875 C1.09282227 13.71757813 1.09282227 13.71757813 1.08789062 15.4140625 C1.07532227 17.12722656 1.07532227 17.12722656 1.0625 18.875 C1.05798828 20.0403125 1.05347656 21.205625 1.04882812 22.40625 C1.03708781 25.27088645 1.0206657 28.13541633 1 31 C-0.98 31 -2.96 31 -5 31 C-5.45439453 29.66195312 -5.45439453 29.66195312 -5.91796875 28.296875 C-6.33691406 27.12640625 -6.75585938 25.9559375 -7.1875 24.75 C-7.59355469 23.58984375 -7.99960937 22.4296875 -8.41796875 21.234375 C-10.61211905 16.74855661 -13.1364777 14.90060804 -17.5703125 12.7578125 C-22.67405891 11.63010544 -27.66705137 11.79162151 -32.875 11.875 C-33.94492187 11.88402344 -35.01484375 11.89304687 -36.1171875 11.90234375 C-38.74502439 11.92580658 -41.37239406 11.95863541 -44 12 C-44.02471188 17.07201786 -44.04286564 22.14400071 -44.05493164 27.21606445 C-44.05996158 28.9416566 -44.06678626 30.66724448 -44.07543945 32.39282227 C-44.08756361 34.8725693 -44.09324169 37.35226 -44.09765625 39.83203125 C-44.10281754 40.60400345 -44.10797882 41.37597565 -44.11329651 42.17134094 C-44.11363318 45.3830228 -44.02326578 47.93020266 -43 51 C-39.99324348 51.04849607 -37.00567735 51.05319783 -34 51 C-33.12601562 50.98453125 -32.25203125 50.9690625 -31.3515625 50.953125 C-27.03382989 50.71973405 -24.63019241 50.45588387 -21.0625 47.875 C-18.74119141 44.63923651 -17.38683842 41.72256629 -16 38 C-14.35 38 -12.7 38 -11 38 C-9.65646605 41.96274659 -9.97167678 45.92976825 -10.12109375 50.046875 C-10.15651024 51.20367767 -10.15651024 51.20367767 -10.19264221 52.3838501 C-10.26902339 54.83943264 -10.35315692 57.2946793 -10.4375 59.75 C-10.4907463 61.41795249 -10.54348652 63.08592121 -10.59570312 64.75390625 C-10.72460378 68.83614894 -10.86045624 72.91810783 -11 77 C-12.98 77 -14.96 77 -17 77 C-17.25394531 76.31292969 -17.50789063 75.62585938 -17.76953125 74.91796875 C-18.11371094 74.01691406 -18.45789063 73.11585938 -18.8125 72.1875 C-19.14894531 71.29417969 -19.48539062 70.40085937 -19.83203125 69.48046875 C-20.98020029 67.04204955 -21.86187633 65.62109628 -24 64 C-24.99 64 -25.98 64 -27 64 C-27 63.34 -27 62.68 -27 62 C-32.94 62 -38.88 62 -45 62 C-44.835 63.41925781 -44.67 64.83851563 -44.5 66.30078125 C-43.93510776 71.94672008 -43.92176221 77.51917241 -44 83.1875 C-44.27970986 92.16898088 -44.27970986 92.16898088 -43 101 C-38.72788264 103.81505705 -34.24851244 103.33058063 -29.3125 103.3125 C-28.45205078 103.32861328 -27.59160156 103.34472656 -26.70507812 103.36132812 C-18.16508297 103.36776369 -10.95118865 101.62372831 -4.5546875 95.7578125 C-2.36016845 93.27657237 -0.84361333 90.50059068 0.8046875 87.640625 C2 86 2 86 4.75 84.9375 C7 85 7 85 8 86 C7.84364821 110.15635179 7.84364821 110.15635179 3 115 C0.48524626 115.10036005 -2.00206248 115.1361771 -4.51733398 115.12939453 C-5.30430664 115.13114685 -6.0912793 115.13289917 -6.90209961 115.13470459 C-9.51678642 115.13912411 -12.13140619 115.13618449 -14.74609375 115.1328125 C-16.55591342 115.13348558 -18.36573301 115.13445564 -20.17555237 115.13571167 C-23.9745469 115.13718883 -27.77351796 115.13503375 -31.57250977 115.13037109 C-36.44978678 115.12467785 -41.32700873 115.12795013 -46.20428371 115.13394356 C-49.94367388 115.13755214 -53.68305093 115.13640914 -57.42244148 115.13381577 C-59.22103952 115.13314711 -61.01963874 115.13397279 -62.8182354 115.13629532 C-65.3299463 115.13882624 -67.8415673 115.13497481 -70.35327148 115.12939453 C-71.47624382 115.13243088 -71.47624382 115.13243088 -72.62190247 115.13552856 C-77.77147306 115.11426347 -77.77147306 115.11426347 -80 114 C-79.80859375 111.66015625 -79.80859375 111.66015625 -79 109 C-76.78515625 107.55859375 -76.78515625 107.55859375 -74.0625 106.4375 C-70.50273323 105.04510737 -70.50273323 105.04510737 -67.8694458 102.43603516 C-66.60581129 98.89555213 -66.72202978 95.42697104 -66.74121094 91.71484375 C-66.7377063 90.88187775 -66.73420166 90.04891174 -66.73059082 89.19070435 C-66.72179422 86.43955125 -66.72761535 83.68865568 -66.734375 80.9375 C-66.73302775 79.0246577 -66.73108673 77.11181574 -66.72857666 75.19897461 C-66.7256282 71.19088479 -66.72991412 67.18288414 -66.73925781 63.17480469 C-66.75065216 58.03656415 -66.74409121 52.89853255 -66.73211288 47.76029968 C-66.72488679 43.81065292 -66.72718567 39.86105572 -66.73236847 35.91140747 C-66.73370289 34.01677424 -66.73206451 32.12213652 -66.72740936 30.22750854 C-66.72233187 27.57993649 -66.73007159 24.93270308 -66.74121094 22.28515625 C-66.73716248 21.50165802 -66.73311401 20.71815979 -66.72894287 19.91091919 C-66.7529565 14.63366369 -66.7529565 14.63366369 -69 10 C-71.38842417 8.65852458 -71.38842417 8.65852458 -74.125 7.75 C-75.03507813 7.41484375 -75.94515625 7.0796875 -76.8828125 6.734375 C-77.58148438 6.49203125 -78.28015625 6.2496875 -79 6 C-79.042721 4.33388095 -79.04063832 2.66617115 -79 1 C-77.08573287 -0.91426713 -73.55168377 -0.19402573 -70.94165039 -0.22119141 C-70.20344559 -0.2326973 -69.46524078 -0.24420319 -68.70466614 -0.25605774 C-66.25237252 -0.2928876 -63.80005274 -0.32244647 -61.34765625 -0.3515625 C-59.64993406 -0.37466536 -57.95221576 -0.39805556 -56.25450134 -0.42172241 C-52.69094129 -0.47024748 -49.12735815 -0.51516805 -45.5637207 -0.55761719 C-40.9890213 -0.61241314 -36.41450085 -0.676243 -31.83995914 -0.74279213 C-28.33223348 -0.79280348 -24.82445822 -0.83795601 -21.31664848 -0.88163376 C-19.62967349 -0.90324413 -17.94271756 -0.9263981 -16.25578499 -0.9510994 C-13.8998009 -0.98488252 -11.54383069 -1.01212099 -9.18774414 -1.03759766 C-8.48584961 -1.04897263 -7.78395508 -1.0603476 -7.06079102 -1.07206726 C-2.22851098 -1.11425549 -2.22851098 -1.11425549 0 0 Z " fill="#FEFEFE" transform="translate(299,590)"/>
<path d="M0 0 C2.34472656 0.23266602 2.34472656 0.23266602 5 1 C6.39746094 2.84350586 6.39746094 2.84350586 7.484375 5.27734375 C7.89880859 6.1885498 8.31324219 7.09975586 8.74023438 8.03857422 C9.36381836 9.50447998 9.36381836 9.50447998 10 11 C10.61584961 12.42530029 10.61584961 12.42530029 11.24414062 13.87939453 C12.60767226 17.09605154 13.93195495 20.32694518 15.25 23.5625 C15.75841003 24.8016213 16.26729648 26.04054721 16.77661133 27.27929688 C17.89811408 30.00744216 19.01806638 32.73621698 20.13720703 35.46533203 C25.42054759 48.33791543 30.75968893 61.1876523 36.10678101 74.03385925 C38.05627308 78.71968799 39.98965839 83.411595 41.91015625 88.109375 C42.68951397 89.98982805 43.46939292 91.87006523 44.25 93.75 C44.57186279 94.55179688 44.89372559 95.35359375 45.2253418 96.1796875 C47.1126563 100.6742044 49.07794571 103.90620562 53 107 C54.32 107 55.64 107 57 107 C57 107.66 57 108.32 57 109 C58.485 109.495 58.485 109.495 60 110 C59.67 111.65 59.34 113.3 59 115 C53.52303716 115.77353458 48.23026526 116.14853193 42.703125 116.1328125 C41.56904205 116.13424759 41.56904205 116.13424759 40.41204834 116.13571167 C38.82889726 116.13638688 37.24574329 116.134579 35.66259766 116.13037109 C33.2424502 116.12498319 30.82248576 116.13035382 28.40234375 116.13671875 C26.85677043 116.13605844 25.31119722 116.13477825 23.765625 116.1328125 C23.0457843 116.13483673 22.3259436 116.13686096 21.58428955 116.13894653 C18.24747894 116.12335489 15.19039933 116.03569701 12 115 C12 113.35 12 111.7 12 110 C12.71027344 109.78085937 13.42054688 109.56171875 14.15234375 109.3359375 C15.07144531 109.01882813 15.99054688 108.70171875 16.9375 108.375 C17.85402344 108.07335937 18.77054688 107.77171875 19.71484375 107.4609375 C22.20919539 106.1750065 22.20919539 106.1750065 23.02734375 103.4921875 C22.98818535 98.49110045 21.37798473 94.3934023 19.625 89.75 C19.13 88.38488281 19.13 88.38488281 18.625 86.9921875 C16.98242833 82.42395564 16.98242833 82.42395564 15 78 C3.45 78 -8.1 78 -20 78 C-25.94924523 90.87594585 -25.94924523 90.87594585 -26.0625 104.875 C-23.02777992 108.00168129 -20.25130497 108.23337123 -16 109 C-15.61781233 110.65614657 -15.28604898 112.32457024 -15 114 C-17.11834035 116.11834035 -21.84603374 115.16419113 -24.77734375 115.16796875 C-25.65902725 115.17129715 -26.54071075 115.17462555 -27.44911194 115.17805481 C-29.31787594 115.18312783 -31.18664904 115.18546302 -33.05541992 115.18530273 C-35.92186344 115.18748808 -38.7879216 115.20563655 -41.65429688 115.22460938 C-43.46614451 115.22754339 -45.27799398 115.22952813 -47.08984375 115.23046875 C-47.9513353 115.23765427 -48.81282684 115.24483978 -49.70042419 115.25224304 C-55.7711784 115.2288216 -55.7711784 115.2288216 -58 113 C-57.34 113 -56.68 113 -56 113 C-55.92265625 112.37609375 -55.8453125 111.7521875 -55.765625 111.109375 C-55 109 -55 109 -53.109375 108.015625 C-51.54892782 107.50925472 -49.98643422 107.00914368 -48.421875 106.515625 C-41.41197765 102.12878602 -38.94877596 92.37949736 -36.12509155 85.06637573 C-34.82347838 81.69755999 -33.49433738 78.33959732 -32.16796875 74.98046875 C-31.89996964 74.30003006 -31.63197052 73.61959137 -31.35585022 72.91853333 C-28.90445356 66.7130297 -26.31611263 60.56994608 -23.6875 54.4375 C-20.39650053 46.75646145 -17.19559354 39.04735135 -14.08203125 31.29296875 C-13.74435226 30.4532402 -13.40667328 29.61351166 -13.0587616 28.74833679 C-11.37708855 24.56380638 -9.70255391 20.37660886 -8.0378418 16.18530273 C-7.42127488 14.646887 -6.8045038 13.10855307 -6.1875 11.5703125 C-5.90981277 10.86420334 -5.63212555 10.15809418 -5.34602356 9.43058777 C-3.92811986 5.91237935 -2.46803415 2.89697552 0 0 Z M-3 33 C-6.3032732 40.49679025 -9.46830081 48.02774097 -12.375 55.6875 C-12.63748535 56.37005859 -12.8999707 57.05261719 -13.17041016 57.75585938 C-14.25563257 60.65269721 -15 62.87911576 -15 66 C-6.42 66 2.16 66 11 66 C7.14886156 54.67765298 3.33627157 43.7116367 -2 33 C-2.33 33 -2.66 33 -3 33 Z " fill="#FDFDFD" transform="translate(894,589)"/>
<path d="M0 0 C1.13566406 0.00870117 2.27132812 0.01740234 3.44140625 0.02636719 C31.32427094 0.51177094 31.32427094 0.51177094 39.1875 8.375 C39.51892597 12.48636474 39.61398806 16.60846323 39.74511719 20.73071289 C39.81211591 22.8006335 39.88990255 24.86995396 39.96875 26.93945312 C40.01257813 28.23689453 40.05640625 29.53433594 40.1015625 30.87109375 C40.1423291 32.06919678 40.1830957 33.2672998 40.22509766 34.50170898 C40.1875 37.375 40.1875 37.375 39.1875 39.375 C37.2075 39.375 35.2275 39.375 33.1875 39.375 C33.02894531 38.82972656 32.87039063 38.28445313 32.70703125 37.72265625 C29.93049705 28.74877499 26.39606079 20.54273767 18.1875 15.375 C7.96296576 10.26273288 -5.00550594 10.29160589 -15.8125 13.375 C-19.03281267 14.76281305 -21.90676972 16.41979847 -24.8125 18.375 C-25.67875 18.931875 -26.545 19.48875 -27.4375 20.0625 C-37.46134101 29.82255572 -41.83480231 42.2252274 -42.10498047 55.97753906 C-42.19884313 69.56244196 -40.69985024 79.74162065 -33.08203125 91.3515625 C-31.8125 93.375 -31.8125 93.375 -30.8125 96.375 C-29.50519785 97.09136813 -28.16707546 97.75262749 -26.8125 98.375 C-25.56659246 99.33277475 -24.33786957 100.31321753 -23.125 101.3125 C-14.32692982 107.9312317 -3.36359263 109.30981075 7.4375 107.97265625 C16.61921465 105.9934346 23.63161299 102.0074412 29.1875 94.375 C30.95653927 91.22080695 32.64044941 88.03278408 34.30859375 84.82421875 C34.92863281 84.01597656 35.54867187 83.20773437 36.1875 82.375 C38.91015625 82.01953125 38.91015625 82.01953125 41.1875 82.375 C42.60731909 86.63445726 41.86185482 90.33849916 41.375 94.75 C41.29185547 95.60078125 41.20871094 96.4515625 41.12304688 97.328125 C40.19540395 106.02223827 40.19540395 106.02223827 38.1875 109.375 C23.33077105 120.19349055 1.06790504 120.91767123 -16.57421875 118.21875 C-31.42997045 115.51211201 -44.64412917 108.43034276 -54.2890625 96.59765625 C-61.83360962 85.59035545 -65.34693124 74.17915048 -65.1875 60.9375 C-65.19910156 59.97779297 -65.21070313 59.01808594 -65.22265625 58.02929688 C-65.16050755 42.64749251 -59.22779349 29.56179671 -48.8125 18.375 C-35.26598938 5.34679065 -18.55023644 -0.23796544 0 0 Z " fill="#FEFEFE" transform="translate(691.8125,587.625)"/>
<path d="M0 0 C0.80449081 -0.00016617 1.60898163 -0.00033234 2.43785095 -0.00050354 C3.35212357 -0.00988449 4.26639618 -0.01926544 5.20837402 -0.02893066 C6.19280991 -0.01769669 7.17724579 -0.00646271 8.19151306 0.00511169 C9.20354294 0.00365646 10.21557281 0.00220123 11.25827026 0.0007019 C13.39758687 0.00236209 15.53691526 0.01393662 17.6761322 0.03465271 C20.95976686 0.06362524 24.24178983 0.05526044 27.52549744 0.04222107 C29.6016772 0.04845765 31.67785184 0.05684795 33.75401306 0.06761169 C35.23370323 0.06320824 35.23370323 0.06320824 36.74328613 0.05871582 C38.10996681 0.07774208 38.10996681 0.07774208 39.5042572 0.09715271 C40.30795242 0.10255569 41.11164764 0.10795868 41.93969727 0.11352539 C42.58869492 0.24145981 43.23769257 0.36939423 43.90635681 0.50120544 C44.56635681 1.49120544 45.22635681 2.48120544 45.90635681 3.50120544 C44.50980384 6.99993816 43.19375197 8.21012376 39.78135681 9.75120544 C39.05690369 10.08636169 38.33245056 10.42151794 37.58604431 10.76683044 C37.03174744 11.00917419 36.47745056 11.25151794 35.90635681 11.50120544 C36.44806504 17.28451305 38.09999893 21.8492418 40.46885681 27.12620544 C41.27524019 28.96327222 42.0811922 30.80052838 42.88682556 32.63792419 C43.35137146 33.69028259 43.81591736 34.74264099 44.29454041 35.82688904 C46.2067745 40.17251847 48.08104162 44.53441426 49.95713806 48.89573669 C50.67576609 50.56486224 51.39443499 52.2339702 52.11314392 53.90306091 C53.19371543 56.41258142 54.27422404 58.92212838 55.35414124 61.43193054 C56.37757643 63.80866039 57.40338966 66.18435047 58.42979431 68.55979919 C58.73577042 69.27158829 59.04174652 69.98337738 59.35699463 70.71673584 C61.08605727 74.71220666 62.92015446 78.6244439 64.90635681 82.50120544 C66.37181463 79.15010783 67.82741491 75.79481366 69.28135681 72.43870544 C69.69385681 71.49575623 70.10635681 70.55280701 70.53135681 69.58128357 C72.27122944 65.5543203 73.96028413 61.63056078 75.07041931 57.38011169 C75.34627869 56.43007263 75.62213806 55.48003357 75.90635681 54.50120544 C76.56635681 54.17120544 77.22635681 53.84120544 77.90635681 53.50120544 C78.62132266 51.51795854 79.28064415 49.51439399 79.90635681 47.50120544 C80.65656197 45.66451895 81.42792863 43.83635171 82.21885681 42.01683044 C82.8724115 40.48929138 82.8724115 40.48929138 83.53916931 38.93089294 C84.44496084 36.82428065 85.35635459 34.72006767 86.27354431 32.61839294 C89.33078635 25.43658768 91.90635681 18.39101779 91.90635681 10.50120544 C87.61635681 9.51120544 83.32635681 8.52120544 78.90635681 7.50120544 C79.56635681 7.17120544 80.22635681 6.84120544 80.90635681 6.50120544 C80.70010681 5.88245544 80.49385681 5.26370544 80.28135681 4.62620544 C80.15760681 3.92495544 80.03385681 3.22370544 79.90635681 2.50120544 C82.45592168 -0.04835942 84.09424868 0.26393829 87.57041931 0.2489624 C88.34127869 0.25614792 89.11213806 0.26333344 89.90635681 0.27073669 C90.69784119 0.27119492 91.48932556 0.27165314 92.30479431 0.27212524 C93.97928871 0.27514813 95.65378029 0.28303554 97.32823181 0.2953949 C99.89604113 0.31363218 102.46348955 0.31590472 105.03135681 0.31565857 C106.65635994 0.32057451 108.28136062 0.32640316 109.90635681 0.33323669 C111.06264587 0.33490593 111.06264587 0.33490593 112.24229431 0.33660889 C117.67421703 0.38513555 117.67421703 0.38513555 119.90635681 1.50120544 C119.90635681 3.15120544 119.90635681 4.80120544 119.90635681 6.50120544 C118.96276306 6.76417419 118.96276306 6.76417419 118.00010681 7.03245544 C111.05388017 9.62682925 108.150291 13.49674379 105.14952087 19.97850037 C104.04263855 22.4754903 102.97500615 24.98761561 101.90635681 27.50120544 C100.91980479 29.75977407 99.93138321 32.0175266 98.94151306 34.27464294 C96.69454233 39.41310391 94.47265559 44.56194967 92.26182556 49.71604919 C88.75565272 57.88414866 85.15577978 66.00924779 81.51255798 74.11717224 C79.00077797 79.72324 76.53851889 85.34170581 74.16564941 91.00776672 C72.91623088 93.98890121 71.65321791 96.96420362 70.38996887 99.9394989 C69.77953155 101.38866815 69.17601922 102.8407754 68.57972717 104.29582214 C67.7486817 106.32249246 66.89464374 108.33798348 66.03526306 110.35276794 C65.30931946 112.098078 65.30931946 112.098078 64.56871033 113.87864685 C62.90635681 116.50120544 62.90635681 116.50120544 60.39830017 117.51048279 C57.90635681 117.50120544 57.90635681 117.50120544 54.90635681 115.50120544 C53.59764388 112.92869466 52.43027149 110.39631184 51.30870056 107.74339294 C50.96213409 106.94442093 50.61556763 106.14544891 50.25849915 105.32226562 C49.50679683 103.58701038 48.75909409 101.85001836 48.01490784 100.11152649 C46.0197434 95.45125537 43.99593306 90.80341569 41.97666931 86.15354919 C41.35254906 84.71287834 41.35254906 84.71287834 40.71582031 83.24310303 C36.31424871 73.09763205 31.77618434 63.01495528 27.21885681 52.93870544 C26.12588741 50.52200843 25.0330328 48.10526115 23.94110107 45.68809509 C23.25119366 44.16134763 22.56028835 42.63505064 21.86831665 41.10923767 C20.207989 37.43730934 18.57952628 33.75613935 17.00938416 30.04466248 C16.70389145 29.32746536 16.39839874 28.61026825 16.08364868 27.87133789 C15.51874706 26.53946449 14.96060277 25.20469128 14.41131592 23.86630249 C11.99740212 18.18682016 9.25893806 12.92255662 3.90635681 9.68870544 C1.97459406 8.92404936 0.03739014 8.17292915 -1.90614319 7.43870544 C-4.09364319 6.50120544 -4.09364319 6.50120544 -5.09364319 4.50120544 C-2.71295412 0.64946472 -2.71295412 0.64946472 0 0 Z " fill="#FDFDFD" transform="translate(93.09364318847656,589.4987945556641)"/>
<path d="M0 0 C12.22153256 -0.02313273 24.44305994 -0.04091986 36.66460991 -0.05181217 C42.33907721 -0.05703895 48.01352958 -0.06413291 53.68798828 -0.07543945 C59.16037265 -0.08627557 64.63274261 -0.09227838 70.10513687 -0.09487724 C72.19680127 -0.09673018 74.28846484 -0.10034829 76.38012314 -0.10573006 C79.30144731 -0.11295007 82.22271136 -0.11399053 85.14404297 -0.11352539 C86.01582184 -0.11712067 86.88760071 -0.12071594 87.78579712 -0.12442017 C93.77189568 -0.11405216 93.77189568 -0.11405216 96 1 C95.88202982 5.39675988 95.75780274 9.79328399 95.62768555 14.18969727 C95.58428187 15.68639269 95.54261087 17.18313939 95.50268555 18.67993164 C95.44511384 20.82714312 95.38138284 22.97409521 95.31640625 25.12109375 C95.27974854 26.4145874 95.24309082 27.70808105 95.20532227 29.04077148 C95 32 95 32 94 33 C92.33382885 33.04063832 90.66611905 33.042721 89 33 C88.81824219 32.41992188 88.63648438 31.83984375 88.44921875 31.2421875 C85.3234875 21.21298619 85.3234875 21.21298619 78 14 C73.39787654 12.15915061 69.03390211 11.60332103 64.125 11.375 C63.43664062 11.33632813 62.74828125 11.29765625 62.0390625 11.2578125 C60.35976754 11.16451834 58.67992233 11.08121762 57 11 C57.08433415 22.53518891 57.17919058 34.07023849 57.28752708 45.60522842 C57.33749903 50.96123915 57.38382909 56.31723007 57.421875 61.67333984 C57.45871631 66.84109291 57.50507329 72.00868059 57.55806351 77.17629242 C57.57661356 79.14904635 57.59171926 81.12183574 57.60334396 83.09464264 C57.62019584 85.85526001 57.64922848 88.61549811 57.68115234 91.37597656 C57.68331253 92.19381119 57.68547272 93.01164581 57.68769836 93.85426331 C57.74574237 99.24129937 57.74574237 99.24129937 60 104 C62.69645135 105.99737137 64.20146747 106 67.625 106 C68.73875 106 69.8525 106 71 106 C73 108 73 108 74 110 C73.5625 112.125 73.5625 112.125 73 114 C62.01407302 115.19789698 51.20964855 114.92627754 40.1875 114.5625 C38.41603455 114.50913381 36.64455007 114.45639511 34.87304688 114.40429688 C30.58177806 114.27675124 26.29085477 114.14076225 22 114 C22 112.35 22 110.7 22 109 C23.04800781 108.60167969 23.04800781 108.60167969 24.1171875 108.1953125 C25.02726563 107.84210938 25.93734375 107.48890625 26.875 107.125 C27.77992188 106.77695312 28.68484375 106.42890625 29.6171875 106.0703125 C32.12217007 105.11469105 32.12217007 105.11469105 34 103 C35.33565591 98.90443668 35.17495943 94.73291443 35.20532227 90.46777344 C35.21522186 89.60887512 35.22512146 88.74997681 35.23532104 87.86505127 C35.26687491 85.02985376 35.29166932 82.1946395 35.31640625 79.359375 C35.33698105 77.39210579 35.35797767 75.42484095 35.37937927 73.45758057 C35.43454555 68.28238465 35.48397885 63.10714919 35.53222656 57.93188477 C35.58248132 52.64986659 35.63814664 47.36790576 35.69335938 42.0859375 C35.80087438 31.72400733 35.90233415 21.36202735 36 11 C33.59592978 11.13644519 31.19252326 11.27927636 28.7890625 11.42578125 C28.11238525 11.46352661 27.43570801 11.50127197 26.73852539 11.54016113 C19.99086619 11.96111979 15.38235095 12.8342264 10.25 17.5 C7.05635177 21.76541493 5.599681 26.97753787 4 32 C1.69 32 -0.62 32 -3 32 C-1.59701493 3.19402985 -1.59701493 3.19402985 0 0 Z " fill="#FDFEFE" transform="translate(753,590)"/>
<path d="M0 0 C0.93444443 -0.00315216 1.86888885 -0.00630432 2.83164978 -0.009552 C4.35659813 -0.00651566 4.35659813 -0.00651566 5.91235352 -0.00341797 C7.46793724 -0.00485306 7.46793724 -0.00485306 9.0549469 -0.00631714 C11.253266 -0.00699916 13.45158709 -0.00514338 15.64990234 -0.00097656 C19.02323925 0.00436599 22.39644268 -0.00091807 25.76977539 -0.00732422 C27.90063506 -0.00666333 30.03149465 -0.00538196 32.16235352 -0.00341797 C33.17696152 -0.0054422 34.19156952 -0.00746643 35.23692322 -0.009552 C36.17451981 -0.00639984 37.11211639 -0.00324768 38.078125 0 C39.31936378 0.00119339 39.31936378 0.00119339 40.5856781 0.00241089 C42.60375977 0.12939453 42.60375977 0.12939453 44.60375977 1.12939453 C44.60375977 2.77939453 44.60375977 4.42939453 44.60375977 6.12939453 C43.84450195 6.33693359 43.08524414 6.54447266 42.30297852 6.75830078 C40.81217773 7.22042969 40.81217773 7.22042969 39.29125977 7.69189453 C38.30512695 7.98193359 37.31899414 8.27197266 36.30297852 8.57080078 C32.70936919 10.64583714 31.75323304 13.30013104 30.60375977 17.12939453 C30.33474184 19.85183405 30.20185599 22.33556811 30.23144531 25.04907227 C30.22779465 25.80777618 30.22414398 26.5664801 30.22038269 27.34817505 C30.21232872 29.83667946 30.22584518 32.32452198 30.24047852 34.81298828 C30.2409978 36.5550181 30.24047746 38.29704851 30.2389679 40.03907776 C30.23905739 43.68296097 30.24943961 47.32662192 30.26757812 50.97045898 C30.29024744 55.62508955 30.29080993 60.27939525 30.28406048 64.93406582 C30.28070748 68.52959545 30.28737587 72.12505198 30.29718971 75.7205677 C30.30102034 77.43605224 30.30219886 79.15154493 30.30060387 80.867033 C30.30023007 83.27161829 30.31294106 85.67579831 30.32910156 88.08032227 C30.32662415 88.77927109 30.32414673 89.47821991 30.32159424 90.198349 C30.37459168 95.17732126 31.08065824 99.41572108 32.60375977 104.12939453 C35.28978836 105.92008026 37.26641866 106.78995244 40.29125977 107.75439453 C41.09950195 108.01478516 41.90774414 108.27517578 42.74047852 108.54345703 C43.66280273 108.83349609 43.66280273 108.83349609 44.60375977 109.12939453 C44.27375977 110.77939453 43.94375977 112.42939453 43.60375977 114.12939453 C40.74387828 114.94404153 38.20416858 115.25563416 35.23413086 115.25878906 C34.37999603 115.26194122 33.52586121 115.26509338 32.64584351 115.26834106 C31.73219025 115.26631683 30.81853699 115.2642926 29.87719727 115.26220703 C28.46115707 115.26364212 28.46115707 115.26364212 27.01651001 115.2651062 C25.02443373 115.26578584 23.03235521 115.2639466 21.0402832 115.25976562 C17.98326685 115.25440244 14.92639662 115.25972403 11.86938477 115.26611328 C9.93448861 115.2654527 7.99959254 115.26417194 6.06469727 115.26220703 C5.14699554 115.26423126 4.22929382 115.26625549 3.28378296 115.26834106 C2.43595245 115.2651889 1.58812195 115.26203674 0.71459961 115.25878906 C-0.03278473 115.25799347 -0.78016907 115.25719788 -1.55020142 115.25637817 C-3.39624023 115.12939453 -3.39624023 115.12939453 -5.39624023 114.12939453 C-5.70874023 111.81689453 -5.70874023 111.81689453 -5.39624023 109.12939453 C-2.65811452 106.87446747 -0.7260952 106.17466874 2.79125977 105.69189453 C5.62252467 105.44609258 5.62252467 105.44609258 6.76237488 103.62452698 C7.98648026 99.99443437 7.89009323 96.4326851 7.87841797 92.64477539 C7.8835289 91.79069595 7.88863983 90.93661652 7.89390564 90.05665588 C7.90779722 87.23577861 7.90684558 84.41514568 7.90454102 81.59423828 C7.9084274 79.63415943 7.91276195 77.67408143 7.91752625 75.71400452 C7.92498694 71.60756702 7.92469768 67.5012155 7.91943359 63.39477539 C7.91363079 58.12633595 7.93059028 52.85824712 7.95377827 47.58986568 C7.9684896 43.54331904 7.96939101 39.49685742 7.96626854 35.45028877 C7.96678279 33.50737372 7.97203983 31.56445404 7.98208046 29.62156487 C7.99438097 26.9090155 7.98769249 24.19715697 7.97607422 21.48461914 C7.98371796 20.67882416 7.99136169 19.87302917 7.99923706 19.04281616 C8.00222815 14.85956663 8.00222815 14.85956663 6.23551941 11.18019104 C4.05326825 9.77489712 1.84432762 8.85636164 -0.58374023 7.94189453 C-1.48479492 7.59771484 -2.38584961 7.25353516 -3.31420898 6.89892578 C-4.0012793 6.64498047 -4.68834961 6.39103516 -5.39624023 6.12939453 C-5.43896124 4.46327548 -5.43687856 2.79556568 -5.39624023 1.12939453 C-3.81178998 -0.45505572 -2.196898 0.00211424 0 0 Z " fill="#FEFEFE" transform="translate(568.396240234375,589.87060546875)"/>
<path d="M0 0 C23.76 0 47.52 0 72 0 C73.231394 3.69418201 72.64432764 6.2056261 72 10 C71.05640625 10.22042969 71.05640625 10.22042969 70.09375 10.4453125 C60.08392866 13.06836809 53.33760349 18.11811483 48 27 C42.24140091 37.71333283 38.08064924 49.20344962 33.73168945 60.54003906 C33.27753662 61.71791992 32.82338379 62.89580078 32.35546875 64.109375 C31.94965576 65.17124023 31.54384277 66.23310547 31.12573242 67.32714844 C30 70 30 70 28 73 C27.67 72.01 27.34 71.02 27 70 C26.34 70 25.68 70 25 70 C25 69.34 25 68.68 25 68 C24.34 68 23.68 68 23 68 C22.89558594 67.00742187 22.79117188 66.01484375 22.68359375 64.9921875 C22.07842988 60.76986667 20.68094135 57.05272816 19.0625 53.125 C18.79759766 52.44953125 18.53269531 51.7740625 18.25976562 51.078125 C16.94979452 47.3525303 16.94979452 47.3525303 14 45 C14.14120016 42.41633755 14.28778333 39.83317115 14.4375 37.25 C14.47681641 36.52039063 14.51613281 35.79078125 14.55664062 35.0390625 C14.88705733 29.44739517 14.88705733 29.44739517 15.50415039 27.00292969 C16.61411425 22.51935337 16.62517422 18.44777189 14.8125 14.25 C10.49189892 8.88649521 5.23064226 6.55198419 -1 4 C-0.67 2.68 -0.34 1.36 0 0 Z " fill="#FDFDFD" transform="translate(572,312)"/>
<path d="M0 0 C23.43 0 46.86 0 71 0 C71.495 0.99 71.495 0.99 72 2 C69.36028598 5.23964903 66.68279 6.66129185 62.9375 8.3125 C59.35881428 10.05433818 58.12909159 10.81189511 55.8125 14.1875 C54.60283712 19.86361042 55.32837022 24.94035324 56.5625 30.5625 C58.20719852 39.72582034 55.72665766 46.77071476 52.5625 55.3125 C51.72931094 57.62067614 50.89723103 59.92925304 50.06640625 62.23828125 C49.69459229 63.24930908 49.32277832 64.26033691 48.93969727 65.30200195 C48.16423526 67.52845833 47.51941769 69.70314115 47 72 C45.68 72 44.36 72 43 72 C42.5467334 70.8761792 42.0934668 69.7523584 41.62646484 68.59448242 C39.92222366 64.37414028 38.20918965 60.15741191 36.49365234 55.94165039 C35.75627106 54.12619899 35.02118955 52.30981155 34.28857422 50.49243164 C24.35036923 25.22108304 24.35036923 25.22108304 2.66015625 10.1640625 C0 9 0 9 -1 8 C-1.23529412 2.47058824 -1.23529412 2.47058824 0 0 Z " fill="#FDFDFD" transform="translate(380,312)"/>
<path d="M0 0 C1.05426178 -0.00021904 1.05426178 -0.00021904 2.12982178 -0.0004425 C4.44562907 0.0002524 6.76135525 0.00802501 9.07714844 0.01586914 C10.68568884 0.01773482 12.29422982 0.01915802 13.902771 0.02015686 C18.13107886 0.02397023 22.35935223 0.03379044 26.58764648 0.04486084 C30.90445489 0.05510033 35.22126888 0.05965992 39.53808594 0.06469727 C48.00424758 0.07541377 56.47038121 0.09247602 64.93652344 0.11352539 C65.93652344 3.11352539 65.93652344 3.11352539 65.03808594 5.31274414 C58.15806857 16.90684748 48.73924944 23.84595006 35.93652344 28.11352539 C22.05981816 29.10980167 10.87224235 27.76839994 -0.31738281 18.71899414 C-4.58583354 14.79431125 -8.51348625 10.35517215 -11.06347656 5.11352539 C-11.06347656 3.79352539 -11.06347656 2.47352539 -11.06347656 1.11352539 C-7.36142321 -0.05729338 -3.86448611 -0.00675609 0 0 Z " fill="#FEFEFE" transform="translate(422.0634765625,417.886474609375)"/>
<path d="M0 0 C2.3612472 2.3612472 2.92167021 4.16905437 4.0234375 7.3125 C4.405 8.38886719 4.7865625 9.46523438 5.1796875 10.57421875 C5.57414062 11.70472656 5.96859375 12.83523438 6.375 14 C7.15188825 16.20895226 7.93051474 18.417294 8.7109375 20.625 C9.27893066 22.23568359 9.27893066 22.23568359 9.85839844 23.87890625 C11.21847162 27.5972928 12.72045804 31.24344888 14.28759766 34.87890625 C15 37 15 37 15 41 C6.42 41 -2.16 41 -11 41 C-12.24917568 37.25247296 -11.57376971 35.70322943 -10.48828125 31.93359375 C-10.14216797 30.72509766 -9.79605469 29.51660156 -9.43945312 28.27148438 C-9.06755859 27.00626953 -8.69566406 25.74105469 -8.3125 24.4375 C-7.95994141 23.19935547 -7.60738281 21.96121094 -7.24414062 20.68554688 C-5.19683362 13.61541354 -2.91188072 6.76228527 0 0 Z " fill="#FEFEFE" transform="translate(447,373)"/>
<path d="M0 0 C3.26214014 4.89321021 4.70242005 10.51164529 6.5625 16.0625 C6.97435547 17.25294922 7.38621094 18.44339844 7.81054688 19.66992188 C10.09602445 26.47398686 11.73423714 32.80992544 12 40 C9.44276771 41.27861615 7.63262898 41.11336609 4.7734375 41.09765625 C3.7421875 41.09443359 2.7109375 41.09121094 1.6484375 41.08789062 C0.02808594 41.07532227 0.02808594 41.07532227 -1.625 41.0625 C-3.25695312 41.05573242 -3.25695312 41.05573242 -4.921875 41.04882812 C-7.61463789 41.03701776 -10.30729188 41.02054778 -13 41 C-14.37218546 36.88344362 -12.92850927 34.08264659 -11.54296875 30.15625 C-11.27994461 29.39074829 -11.01692047 28.62524658 -10.7459259 27.83654785 C-10.18768622 26.2178353 -9.62504229 24.60063594 -9.05834961 22.98486328 C-8.19201349 20.51287871 -7.34002504 18.03630852 -6.49023438 15.55859375 C-5.94615387 13.98668769 -5.40125887 12.41506327 -4.85546875 10.84375 C-4.60016891 10.10306274 -4.34486908 9.36237549 -4.08183289 8.59924316 C-2.96498865 5.42845297 -1.87529736 2.81294605 0 0 Z " fill="#FEFEFE" transform="translate(576,373)"/>
<path d="M0 0 C0.99 0.33 1.98 0.66 3 1 C2.01 1 1.02 1 0 1 C0 0.67 0 0.34 0 0 Z " fill="#FFFFFE" transform="translate(465,444)"/>
<path d="M0 0 C0 3 0 3 0 3 Z " fill="#FDFDFD" transform="translate(578,371)"/>
<path d="M0 0 C4 1 4 1 4 1 Z " fill="#FCFBFB" transform="translate(487,333)"/>
<path d="M0 0 C4 1 4 1 4 1 Z " fill="#FBFCFC" transform="translate(481,333)"/>
<path d="M0 0 C3 1 3 1 3 1 Z " fill="#F6F7F5" transform="translate(777,696)"/>
<path d="M0 0 C3 1 3 1 3 1 Z " fill="#FBFDFD" transform="translate(888,653)"/>
<path d="" fill="#FEFEFE" transform="translate(0,0)"/>
<path d="M0 0 C0.66 0 1.32 0 2 0 C1.67 0.66 1.34 1.32 1 2 C0.67 1.34 0.34 0.68 0 0 Z " fill="#FDFEFD" transform="translate(482,523)"/>
<path d="M0 0 C0.66 0 1.32 0 2 0 C1.67 0.66 1.34 1.32 1 2 C0.67 1.34 0.34 0.68 0 0 Z " fill="#FEFEFE" transform="translate(511,515)"/>
<path d="" fill="#FFFEFE" transform="translate(0,0)"/>
<path d="M0 0 C3 1 3 1 3 1 Z " fill="#F9FBF9" transform="translate(579,447)"/>
<path d="" fill="#FEFEFE" transform="translate(0,0)"/>
<path d="M0 0 C0.33 0.66 0.66 1.32 1 2 C0.34 1.67 -0.32 1.34 -1 1 C-0.67 0.67 -0.34 0.34 0 0 Z " fill="#FDFFFE" transform="translate(484,429)"/>
<path d="" fill="#FEFEFF" transform="translate(0,0)"/>
<path d="" fill="#FEFEFE" transform="translate(0,0)"/>
<path d="M0 0 C3 1 3 1 3 1 Z " fill="#FDFEFE" transform="translate(580,417)"/>
<path d="M0 0 C3 1 3 1 3 1 Z " fill="#FEFEFC" transform="translate(461,417)"/>
<path d="M0 0 C0.33 0.66 0.66 1.32 1 2 C0.34 1.67 -0.32 1.34 -1 1 C-0.67 0.67 -0.34 0.34 0 0 Z " fill="#FCFDFE" transform="translate(580,373)"/>
<path d="M0 0 C0.66 0.66 1.32 1.32 2 2 C1.34 2 0.68 2 0 2 C0 1.34 0 0.68 0 0 Z " fill="#FAFBFB" transform="translate(446,366)"/>
<path d="" fill="#FCFDFC" transform="translate(0,0)"/>
<path d="" fill="#FEFEFD" transform="translate(0,0)"/>
<path d="M0 0 C0.33 0.66 0.66 1.32 1 2 C0.34 1.67 -0.32 1.34 -1 1 C-0.67 0.67 -0.34 0.34 0 0 Z " fill="#FCFDFE" transform="translate(585,332)"/>
<path d="M0 0 C3 1 3 1 3 1 Z " fill="#FBFAFA" transform="translate(464,320)"/>
<path d="" fill="#FBFCFC" transform="translate(0,0)"/>
<path d="M0 0 C2 1 2 1 2 1 Z " fill="#F1F2F1" transform="translate(414,706)"/>
<path d="M0 0 C2 1 2 1 2 1 Z " fill="#F9FAFA" transform="translate(385,693)"/>
<path d="" fill="#FCFDFD" transform="translate(0,0)"/>
<path d="" fill="#FCFDFD" transform="translate(0,0)"/>
<path d="" fill="#F4F5F4" transform="translate(0,0)"/>
<path d="M0 0 C2 1 2 1 2 1 Z " fill="#FCFCFC" transform="translate(874,667)"/>
<path d="M0 0 C2 1 2 1 2 1 Z " fill="#FCFDFD" transform="translate(370,667)"/>
<path d="M0 0 C2 1 2 1 2 1 Z " fill="#FCFBFB" transform="translate(899,653)"/>
<path d="M0 0 C2 1 2 1 2 1 Z " fill="#FDFEFD" transform="translate(896,653)"/>
<path d="M0 0 C2 1 2 1 2 1 Z " fill="#FDFCFB" transform="translate(263,653)"/>
<path d="" fill="#FFFDFC" transform="translate(0,0)"/>
<path d="" fill="#F3F3F2" transform="translate(0,0)"/>
<path d="" fill="#ECEDED" transform="translate(0,0)"/>
<path d="" fill="#FAFAFB" transform="translate(0,0)"/>
<path d="M0 0 C2 1 2 1 2 1 Z " fill="#FCFCFD" transform="translate(826,603)"/>
<path d="" fill="#FFFEFE" transform="translate(0,0)"/>
<path d="M0 0 C2 1 2 1 2 1 Z " fill="#FAFCFA" transform="translate(604,599)"/>
<path d="M0 0 C2 1 2 1 2 1 Z " fill="#F7FBF8" transform="translate(328,599)"/>
<path d="" fill="#F8F9F9" transform="translate(0,0)"/>
<path d="M0 0 C2 1 2 1 2 1 Z " fill="#F3F3F3" transform="translate(756,588)"/>
<path d="M0 0 C2 1 2 1 2 1 Z " fill="#F9FAF9" transform="translate(604,588)"/>
<path d="" fill="#FEFDFE" transform="translate(0,0)"/>
<path d="" fill="#FCFCFD" transform="translate(0,0)"/>
<path d="" fill="#FEFDFF" transform="translate(0,0)"/>
<path d="" fill="#FEFEFE" transform="translate(0,0)"/>
<path d="M0 0 C2 1 2 1 2 1 Z " fill="#FFFEFE" transform="translate(498,483)"/>
<path d="M0 0 C2 1 2 1 2 1 Z " fill="#FEFEFD" transform="translate(497,464)"/>
<path d="" fill="#FEFEFF" transform="translate(0,0)"/>
<path d="M0 0 C2 1 2 1 2 1 Z " fill="#FAFCFC" transform="translate(453,447)"/>
<path d="M0 0 C2 1 2 1 2 1 Z " fill="#F9FBFA" transform="translate(587,446)"/>
<path d="M0 0 C2 1 2 1 2 1 Z " fill="#FEFFFE" transform="translate(459,446)"/>
<path d="M0 0 C2 1 2 1 2 1 Z " fill="#FEFEFE" transform="translate(561,445)"/>
<path d="" fill="#FDFDFF" transform="translate(0,0)"/>
<path d="M0 0 C2 1 2 1 2 1 Z " fill="#FAF9FA" transform="translate(434,445)"/>
<path d="M0 0 C2 1 2 1 2 1 Z " fill="#FFFFFE" transform="translate(471,443)"/>
<path d="M0 0 C2 1 2 1 2 1 Z " fill="#FFFFFE" transform="translate(468,442)"/>
<path d="M0 0 C2 1 2 1 2 1 Z " fill="#FDFEFE" transform="translate(474,438)"/>
<path d="" fill="#FEFDFE" transform="translate(0,0)"/>
<path d="M0 0 C2 1 2 1 2 1 Z " fill="#FCFCFB" transform="translate(554,417)"/>
<path d="M0 0 C2 1 2 1 2 1 Z " fill="#FBFCFC" transform="translate(433,417)"/>
<path d="M0 0 C2 1 2 1 2 1 Z " fill="#FEFCFD" transform="translate(579,415)"/>
<path d="M0 0 C2 1 2 1 2 1 Z " fill="#FCFDFC" transform="translate(564,415)"/>
<path d="M0 0 C2 1 2 1 2 1 Z " fill="#FAFCFA" transform="translate(437,415)"/>
<path d="" fill="#FDFEFD" transform="translate(0,0)"/>
<path d="" fill="#FBFDFB" transform="translate(0,0)"/>
<path d="" fill="#FDFCFC" transform="translate(0,0)"/>
<path d="M0 0 C2 1 2 1 2 1 Z " fill="#FCFDFE" transform="translate(438,391)"/>
<path d="" fill="#FDFDFD" transform="translate(0,0)"/>
<path d="" fill="#FDFDFD" transform="translate(0,0)"/>
<path d="M0 0 C2 1 2 1 2 1 Z " fill="#FDFDFD" transform="translate(596,383)"/>
<path d="" fill="#FDFDFE" transform="translate(0,0)"/>
<path d="" fill="#FBFAFC" transform="translate(0,0)"/>
<path d="" fill="#FDFFFE" transform="translate(0,0)"/>
<path d="" fill="#FCFDFD" transform="translate(0,0)"/>
<path d="" fill="#FCFDFE" transform="translate(0,0)"/>
<path d="" fill="#F9F9F9" transform="translate(0,0)"/>
<path d="" fill="#FDFEFE" transform="translate(0,0)"/>
<path d="" fill="#FEFEFE" transform="translate(0,0)"/>
<path d="M0 0 C2 1 2 1 2 1 Z " fill="#F9F8F8" transform="translate(402,339)"/>
<path d="M0 0 C2 1 2 1 2 1 Z " fill="#FCFDFD" transform="translate(529,333)"/>
<path d="" fill="#FAFBFB" transform="translate(0,0)"/>
<path d="M0 0 C2 1 2 1 2 1 Z " fill="#F8F9F9" transform="translate(446,319)"/>
<path d="" fill="#2B2B2A" transform="translate(0,0)"/>
<path d="" fill="#F2F1F2" transform="translate(0,0)"/>
<path d="" fill="#F1F3F2" transform="translate(0,0)"/>
<path d="" fill="#F8F8F8" transform="translate(0,0)"/>
<path d="" fill="#F0F0F0" transform="translate(0,0)"/>
<path d="" fill="#F9F9F8" transform="translate(0,0)"/>
<path d="" fill="#F8F7F6" transform="translate(0,0)"/>
<path d="" fill="#F6F6F7" transform="translate(0,0)"/>
<path d="" fill="#F9FAF7" transform="translate(0,0)"/>
<path d="" fill="#F2F5F3" transform="translate(0,0)"/>
<path d="" fill="#FBFDFB" transform="translate(0,0)"/>
<path d="" fill="#FBFBFA" transform="translate(0,0)"/>
<path d="" fill="#FCFCFB" transform="translate(0,0)"/>
<path d="" fill="#FBFEFC" transform="translate(0,0)"/>
<path d="" fill="#FAFCFD" transform="translate(0,0)"/>
<path d="" fill="#F9F9FA" transform="translate(0,0)"/>
<path d="" fill="#FBFCFC" transform="translate(0,0)"/>
<path d="" fill="#FCFCFB" transform="translate(0,0)"/>
<path d="" fill="#FBFBFA" transform="translate(0,0)"/>
<path d="" fill="#FEFFFC" transform="translate(0,0)"/>
<path d="" fill="#F9FAFA" transform="translate(0,0)"/>
<path d="" fill="#FBFDFC" transform="translate(0,0)"/>
<path d="" fill="#FDFDFD" transform="translate(0,0)"/>
<path d="" fill="#FFFFFF" transform="translate(0,0)"/>
<path d="" fill="#FFFEFD" transform="translate(0,0)"/>
<path d="" fill="#FBFAFA" transform="translate(0,0)"/>
<path d="" fill="#FDFCFC" transform="translate(0,0)"/>
<path d="" fill="#FCFCFD" transform="translate(0,0)"/>
<path d="" fill="#F2F1F1" transform="translate(0,0)"/>
<path d="" fill="#FCFEFB" transform="translate(0,0)"/>
<path d="" fill="#FBF9F9" transform="translate(0,0)"/>
<path d="" fill="#FDFDFC" transform="translate(0,0)"/>
<path d="" fill="#FCFCFC" transform="translate(0,0)"/>
<path d="" fill="#FCFCFD" transform="translate(0,0)"/>
<path d="" fill="#F1F1F0" transform="translate(0,0)"/>
<path d="" fill="#FDFDFB" transform="translate(0,0)"/>
<path d="" fill="#F5F3F3" transform="translate(0,0)"/>
<path d="" fill="#FDFDFC" transform="translate(0,0)"/>
<path d="" fill="#FEFDFD" transform="translate(0,0)"/>
<path d="" fill="#FBFCFB" transform="translate(0,0)"/>
<path d="" fill="#FAFBFD" transform="translate(0,0)"/>
<path d="" fill="#FEFEFC" transform="translate(0,0)"/>
<path d="" fill="#FDFDFD" transform="translate(0,0)"/>
<path d="" fill="#FCFDFC" transform="translate(0,0)"/>
<path d="" fill="#FCFDFC" transform="translate(0,0)"/>
<path d="" fill="#FCFEFC" transform="translate(0,0)"/>
<path d="" fill="#FDFCFA" transform="translate(0,0)"/>
<path d="" fill="#FDFBFC" transform="translate(0,0)"/>
<path d="" fill="#FAFDFD" transform="translate(0,0)"/>
<path d="" fill="#FDFBFC" transform="translate(0,0)"/>
<path d="" fill="#FCFBFB" transform="translate(0,0)"/>
<path d="" fill="#FCFDFC" transform="translate(0,0)"/>
<path d="" fill="#FFFFFC" transform="translate(0,0)"/>
<path d="" fill="#F5F5F4" transform="translate(0,0)"/>
<path d="" fill="#FBFCFC" transform="translate(0,0)"/>
<path d="" fill="#FFFFFE" transform="translate(0,0)"/>
<path d="" fill="#FDFCFE" transform="translate(0,0)"/>
<path d="" fill="#FDFEFD" transform="translate(0,0)"/>
<path d="" fill="#FDFCFD" transform="translate(0,0)"/>
<path d="" fill="#FDFBFC" transform="translate(0,0)"/>
<path d="" fill="#FCFDFE" transform="translate(0,0)"/>
<path d="" fill="#FDFCFC" transform="translate(0,0)"/>
<path d="" fill="#F5F4F4" transform="translate(0,0)"/>
<path d="" fill="#FDFCFC" transform="translate(0,0)"/>
<path d="" fill="#FCFCFD" transform="translate(0,0)"/>
<path d="" fill="#FCFEFC" transform="translate(0,0)"/>
<path d="" fill="#FCFDFE" transform="translate(0,0)"/>
<path d="" fill="#FCFDFD" transform="translate(0,0)"/>
<path d="" fill="#FAF8F7" transform="translate(0,0)"/>
<path d="" fill="#FDFEFF" transform="translate(0,0)"/>
<path d="" fill="#FFFFFF" transform="translate(0,0)"/>
<path d="" fill="#F4F5F6" transform="translate(0,0)"/>
<path d="" fill="#F4F5F5" transform="translate(0,0)"/>
<path d="" fill="#FEFEFF" transform="translate(0,0)"/>
<path d="" fill="#FFFCFC" transform="translate(0,0)"/>
<path d="" fill="#FBFDFB" transform="translate(0,0)"/>
<path d="" fill="#F5F6F6" transform="translate(0,0)"/>
<path d="" fill="#FEFDFE" transform="translate(0,0)"/>
<path d="" fill="#F4F4F5" transform="translate(0,0)"/>
<path d="" fill="#FBFBFC" transform="translate(0,0)"/>
<path d="" fill="#FDFDFD" transform="translate(0,0)"/>
<path d="" fill="#FEFDFC" transform="translate(0,0)"/>
<path d="" fill="#FDFCFC" transform="translate(0,0)"/>
<path d="" fill="#FCFEFB" transform="translate(0,0)"/>
<path d="" fill="#FDFEFC" transform="translate(0,0)"/>
<path d="" fill="#FDFEFD" transform="translate(0,0)"/>
<path d="" fill="#FDFFFF" transform="translate(0,0)"/>
<path d="" fill="#FBFEFD" transform="translate(0,0)"/>
<path d="" fill="#FAFAF9" transform="translate(0,0)"/>
<path d="" fill="#FEFEFE" transform="translate(0,0)"/>
<path d="" fill="#FDFEFE" transform="translate(0,0)"/>
<path d="" fill="#FBFCFA" transform="translate(0,0)"/>
<path d="" fill="#FBFCFB" transform="translate(0,0)"/>
<path d="" fill="#FDFDFC" transform="translate(0,0)"/>
<path d="" fill="#FFFDFD" transform="translate(0,0)"/>
<path d="" fill="#FBFDFD" transform="translate(0,0)"/>
<path d="" fill="#FDFFFD" transform="translate(0,0)"/>
<path d="" fill="#FBFDFC" transform="translate(0,0)"/>
<path d="" fill="#FDFCFC" transform="translate(0,0)"/>
<path d="" fill="#FDFCFE" transform="translate(0,0)"/>
<path d="" fill="#FFFEFF" transform="translate(0,0)"/>
<path d="" fill="#FDFCFC" transform="translate(0,0)"/>
<path d="" fill="#FDFDFD" transform="translate(0,0)"/>
<path d="" fill="#FDFEFC" transform="translate(0,0)"/>
<path d="" fill="#FAFCFB" transform="translate(0,0)"/>
<path d="" fill="#FCFBFE" transform="translate(0,0)"/>
<path d="" fill="#FCFDFC" transform="translate(0,0)"/>
<path d="" fill="#FAFBFD" transform="translate(0,0)"/>
<path d="" fill="#F2F3F4" transform="translate(0,0)"/>
<path d="" fill="#FDFDFE" transform="translate(0,0)"/>
<path d="" fill="#FEFCFC" transform="translate(0,0)"/>
<path d="" fill="#FFFDFD" transform="translate(0,0)"/>
<path d="" fill="#FBFCFC" transform="translate(0,0)"/>
<path d="" fill="#FCFDFC" transform="translate(0,0)"/>
<path d="" fill="#EEEFED" transform="translate(0,0)"/>
<path d="" fill="#FFFFFF" transform="translate(0,0)"/>
<path d="" fill="#FCFCFD" transform="translate(0,0)"/>
<path d="" fill="#FDFEFD" transform="translate(0,0)"/>
<path d="" fill="#FDFEFC" transform="translate(0,0)"/>
<path d="" fill="#F4F6F4" transform="translate(0,0)"/>
<path d="" fill="#FBFCFE" transform="translate(0,0)"/>
<path d="" fill="#FEFEFF" transform="translate(0,0)"/>
<path d="" fill="#FDFEFD" transform="translate(0,0)"/>
<path d="" fill="#FDFDFC" transform="translate(0,0)"/>
<path d="" fill="#FAFBFC" transform="translate(0,0)"/>
<path d="" fill="#FCFDFE" transform="translate(0,0)"/>
<path d="" fill="#FFFEFF" transform="translate(0,0)"/>
<path d="" fill="#FFFEFE" transform="translate(0,0)"/>
<path d="" fill="#FBFDFC" transform="translate(0,0)"/>
<path d="" fill="#FAFBFD" transform="translate(0,0)"/>
<path d="" fill="#FAFBFC" transform="translate(0,0)"/>
<path d="" fill="#FBFCFC" transform="translate(0,0)"/>
<path d="" fill="#F7F9F8" transform="translate(0,0)"/>
<path d="" fill="#FCFBF9" transform="translate(0,0)"/>
<path d="" fill="#F9FAF8" transform="translate(0,0)"/>
<path d="" fill="#F6F9F7" transform="translate(0,0)"/>
<path d="" fill="#FAFDFB" transform="translate(0,0)"/>
<path d="" fill="#F7F8F9" transform="translate(0,0)"/>
<path d="" fill="#F5F6F6" transform="translate(0,0)"/>
<path d="" fill="#E4E5E4" transform="translate(0,0)"/>
<path d="" fill="#FCFBFB" transform="translate(0,0)"/>
<path d="" fill="#FCFEFD" transform="translate(0,0)"/>
<path d="" fill="#F7FAF7" transform="translate(0,0)"/>
<path d="" fill="#F9FAF8" transform="translate(0,0)"/>
<path d="" fill="#E0E1E0" transform="translate(0,0)"/>
<path d="" fill="#EEEDEC" transform="translate(0,0)"/>
<path d="" fill="#FDFCFC" transform="translate(0,0)"/>
<path d="" fill="#FDFEFC" transform="translate(0,0)"/>
<path d="" fill="#ECEEEC" transform="translate(0,0)"/>
<path d="" fill="#E1E2E3" transform="translate(0,0)"/>
<path d="" fill="#ECEDED" transform="translate(0,0)"/>
<path d="" fill="#F3F4F4" transform="translate(0,0)"/>
<path d="" fill="#FBFCFC" transform="translate(0,0)"/>
<path d="" fill="#FAFCFB" transform="translate(0,0)"/>
<path d="" fill="#FDFEFD" transform="translate(0,0)"/>
<path d="" fill="#F0F4F1" transform="translate(0,0)"/>
<path d="" fill="#F0F2F2" transform="translate(0,0)"/>
<path d="" fill="#F0F0F0" transform="translate(0,0)"/>
<path d="" fill="#F4F4F3" transform="translate(0,0)"/>
<path d="" fill="#FEFEFD" transform="translate(0,0)"/>
<path d="" fill="#FDFDFE" transform="translate(0,0)"/>
<path d="" fill="#FDFDFF" transform="translate(0,0)"/>
<path d="" fill="#FEFEFD" transform="translate(0,0)"/>
<path d="" fill="#FDFCFE" transform="translate(0,0)"/>
<path d="" fill="#FFFEFE" transform="translate(0,0)"/>
<path d="" fill="#FCFEFB" transform="translate(0,0)"/>
<path d="" fill="#FDFFFF" transform="translate(0,0)"/>
<path d="" fill="#FBFDFE" transform="translate(0,0)"/>
<path d="" fill="#FDFCFC" transform="translate(0,0)"/>
<path d="" fill="#FDFDFD" transform="translate(0,0)"/>
<path d="" fill="#FEFDFD" transform="translate(0,0)"/>
<path d="" fill="#FFFFFF" transform="translate(0,0)"/>
<path d="" fill="#FFFDFF" transform="translate(0,0)"/>
<path d="" fill="#FDFEFD" transform="translate(0,0)"/>
<path d="" fill="#FCFDFD" transform="translate(0,0)"/>
<path d="" fill="#FCFCFC" transform="translate(0,0)"/>
<path d="" fill="#FFFFFF" transform="translate(0,0)"/>
<path d="" fill="#FFFFFF" transform="translate(0,0)"/>
<path d="" fill="#FFFFFF" transform="translate(0,0)"/>
<path d="" fill="#FDFCFD" transform="translate(0,0)"/>
<path d="" fill="#FEFDFE" transform="translate(0,0)"/>
<path d="" fill="#FFFFFE" transform="translate(0,0)"/>
<path d="" fill="#FEFDFE" transform="translate(0,0)"/>
<path d="" fill="#FEFFFE" transform="translate(0,0)"/>
<path d="" fill="#FCFCFC" transform="translate(0,0)"/>
<path d="" fill="#FBFBFA" transform="translate(0,0)"/>
<path d="" fill="#FFFEFF" transform="translate(0,0)"/>
<path d="" fill="#FBFDFC" transform="translate(0,0)"/>
<path d="" fill="#FCFEFB" transform="translate(0,0)"/>
<path d="" fill="#FDFDFB" transform="translate(0,0)"/>
<path d="" fill="#FCFBFA" transform="translate(0,0)"/>
<path d="" fill="#FEFEFF" transform="translate(0,0)"/>
<path d="" fill="#FEFFFF" transform="translate(0,0)"/>
<path d="" fill="#FAFBFC" transform="translate(0,0)"/>
<path d="" fill="#FFFFFF" transform="translate(0,0)"/>
<path d="" fill="#FEFDFE" transform="translate(0,0)"/>
<path d="" fill="#FDFDFC" transform="translate(0,0)"/>
<path d="" fill="#FBFCFC" transform="translate(0,0)"/>
<path d="" fill="#FEFEFF" transform="translate(0,0)"/>
<path d="" fill="#FAFCFD" transform="translate(0,0)"/>
<path d="" fill="#FBFCFD" transform="translate(0,0)"/>
<path d="" fill="#FCFFFB" transform="translate(0,0)"/>
<path d="" fill="#FFFFFF" transform="translate(0,0)"/>
<path d="" fill="#F9FBF9" transform="translate(0,0)"/>
<path d="" fill="#FFFFFF" transform="translate(0,0)"/>
<path d="" fill="#FFFFFE" transform="translate(0,0)"/>
<path d="" fill="#FFFFFF" transform="translate(0,0)"/>
<path d="" fill="#FDFFFD" transform="translate(0,0)"/>
<path d="" fill="#FFFEFE" transform="translate(0,0)"/>
<path d="" fill="#F2F3F3" transform="translate(0,0)"/>
<path d="" fill="#F3F2F2" transform="translate(0,0)"/>
<path d="" fill="#F0F1F1" transform="translate(0,0)"/>
<path d="" fill="#FEFDFC" transform="translate(0,0)"/>
<path d="" fill="#FCFEFD" transform="translate(0,0)"/>
<path d="" fill="#FEFEFE" transform="translate(0,0)"/>
<path d="" fill="#FDFCFD" transform="translate(0,0)"/>
<path d="" fill="#FBFCFC" transform="translate(0,0)"/>
<path d="" fill="#FEFEFE" transform="translate(0,0)"/>
<path d="" fill="#FDFDFE" transform="translate(0,0)"/>
<path d="" fill="#FFFEFE" transform="translate(0,0)"/>
<path d="" fill="#FCFDFD" transform="translate(0,0)"/>
<path d="" fill="#FDFCFC" transform="translate(0,0)"/>
<path d="" fill="#FBFDFB" transform="translate(0,0)"/>
<path d="" fill="#FBFEFA" transform="translate(0,0)"/>
<path d="" fill="#FDFDFD" transform="translate(0,0)"/>
<path d="" fill="#FDFDFC" transform="translate(0,0)"/>
<path d="" fill="#FDFFFF" transform="translate(0,0)"/>
<path d="" fill="#FCFDFD" transform="translate(0,0)"/>
<path d="" fill="#FEFEFF" transform="translate(0,0)"/>
<path d="" fill="#FEFFFE" transform="translate(0,0)"/>
<path d="" fill="#FEFFFF" transform="translate(0,0)"/>
<path d="" fill="#F5F7F6" transform="translate(0,0)"/>
<path d="" fill="#FDFCFC" transform="translate(0,0)"/>
<path d="" fill="#FDFCFE" transform="translate(0,0)"/>
<path d="" fill="#FFFFFE" transform="translate(0,0)"/>
<path d="" fill="#FFFFFF" transform="translate(0,0)"/>
<path d="" fill="#FDFEFF" transform="translate(0,0)"/>
<path d="" fill="#FDFEFE" transform="translate(0,0)"/>
<path d="" fill="#FCFDFF" transform="translate(0,0)"/>
<path d="" fill="#FEFDFE" transform="translate(0,0)"/>
<path d="" fill="#FEFEFE" transform="translate(0,0)"/>
<path d="" fill="#FEFEFD" transform="translate(0,0)"/>
<path d="" fill="#FEFEFE" transform="translate(0,0)"/>
<path d="" fill="#FEFFFD" transform="translate(0,0)"/>
<path d="" fill="#FCFDFC" transform="translate(0,0)"/>
<path d="" fill="#FEFEFE" transform="translate(0,0)"/>
<path d="" fill="#F9FBFD" transform="translate(0,0)"/>
<path d="" fill="#FEFFFE" transform="translate(0,0)"/>
<path d="" fill="#FDFEFC" transform="translate(0,0)"/>
<path d="" fill="#FBFDFD" transform="translate(0,0)"/>
<path d="" fill="#FCFCFD" transform="translate(0,0)"/>
<path d="" fill="#FDFCFF" transform="translate(0,0)"/>
<path d="" fill="#FCFDFD" transform="translate(0,0)"/>
<path d="" fill="#FEFDFD" transform="translate(0,0)"/>
<path d="" fill="#FAFCFC" transform="translate(0,0)"/>
<path d="" fill="#FDFEFE" transform="translate(0,0)"/>
<path d="" fill="#FDFDFD" transform="translate(0,0)"/>
<path d="" fill="#FEFDFE" transform="translate(0,0)"/>
<path d="" fill="#FEFEFF" transform="translate(0,0)"/>
<path d="" fill="#FDFCFB" transform="translate(0,0)"/>
<path d="" fill="#FDFFFF" transform="translate(0,0)"/>
<path d="" fill="#FDFBFD" transform="translate(0,0)"/>
<path d="" fill="#FEFCFC" transform="translate(0,0)"/>
<path d="" fill="#F9FAF9" transform="translate(0,0)"/>
<path d="" fill="#FCFEFE" transform="translate(0,0)"/>
<path d="" fill="#F7FAF8" transform="translate(0,0)"/>
<path d="" fill="#F7FAF9" transform="translate(0,0)"/>
<path d="" fill="#FEFEFF" transform="translate(0,0)"/>
<path d="" fill="#FDFEFD" transform="translate(0,0)"/>
<path d="" fill="#FEFEFD" transform="translate(0,0)"/>
<path d="" fill="#FEFFFE" transform="translate(0,0)"/>
<path d="" fill="#F8F8F9" transform="translate(0,0)"/>
<path d="" fill="#FBFDFE" transform="translate(0,0)"/>
<path d="" fill="#FCFEFD" transform="translate(0,0)"/>
<path d="" fill="#FBFCFC" transform="translate(0,0)"/>
<path d="" fill="#FEFEFD" transform="translate(0,0)"/>
<path d="" fill="#FDFEFE" transform="translate(0,0)"/>
<path d="" fill="#FEFFFE" transform="translate(0,0)"/>
<path d="" fill="#FCFEFD" transform="translate(0,0)"/>
<path d="" fill="#FDFEFE" transform="translate(0,0)"/>
<path d="" fill="#FDFCFD" transform="translate(0,0)"/>
<path d="" fill="#F8F8F8" transform="translate(0,0)"/>
<path d="" fill="#FEFFFE" transform="translate(0,0)"/>
<path d="" fill="#FDFFFD" transform="translate(0,0)"/>
<path d="" fill="#FEFEFE" transform="translate(0,0)"/>
<path d="" fill="#FEFEFE" transform="translate(0,0)"/>
<path d="" fill="#FDFCFD" transform="translate(0,0)"/>
<path d="" fill="#FFFEFE" transform="translate(0,0)"/>
<path d="" fill="#FEFFFF" transform="translate(0,0)"/>
<path d="" fill="#F7F9F8" transform="translate(0,0)"/>
<path d="" fill="#FEFFFE" transform="translate(0,0)"/>
<path d="" fill="#FFFDFE" transform="translate(0,0)"/>
<path d="" fill="#FCFCFC" transform="translate(0,0)"/>
<path d="" fill="#F7F8F8" transform="translate(0,0)"/>
<path d="" fill="#FEFFFF" transform="translate(0,0)"/>
<path d="" fill="#FDFDFE" transform="translate(0,0)"/>
<path d="" fill="#FCFBFC" transform="translate(0,0)"/>
<path d="" fill="#FCFCFD" transform="translate(0,0)"/>
<path d="" fill="#FDFEFC" transform="translate(0,0)"/>
<path d="" fill="#FDFDFD" transform="translate(0,0)"/>
<path d="" fill="#FEFFFD" transform="translate(0,0)"/>
<path d="" fill="#FDFEFD" transform="translate(0,0)"/>
<path d="" fill="#FDFDFC" transform="translate(0,0)"/>
<path d="" fill="#FCFFFE" transform="translate(0,0)"/>
<path d="" fill="#FCFDFD" transform="translate(0,0)"/>
<path d="" fill="#FBFDFD" transform="translate(0,0)"/>
<path d="" fill="#FDFDFE" transform="translate(0,0)"/>
<path d="" fill="#F2F4F3" transform="translate(0,0)"/>
<path d="" fill="#FAFCFD" transform="translate(0,0)"/>
<path d="" fill="#EEF0F2" transform="translate(0,0)"/>
<path d="" fill="#FAFAFB" transform="translate(0,0)"/>
<path d="" fill="#FCFCFC" transform="translate(0,0)"/>
<path d="" fill="#F9F8F9" transform="translate(0,0)"/>
<path d="" fill="#FBFBFA" transform="translate(0,0)"/>
<path d="" fill="#F9F9FA" transform="translate(0,0)"/>
<path d="" fill="#FAF9F9" transform="translate(0,0)"/>
<path d="" fill="#FBFAFA" transform="translate(0,0)"/>
<path d="" fill="#FCFDFF" transform="translate(0,0)"/>
<path d="" fill="#F7F6F5" transform="translate(0,0)"/>
<path d="" fill="#FCFCFD" transform="translate(0,0)"/>
<path d="" fill="#F2F1F2" transform="translate(0,0)"/>
<path d="" fill="#272828" transform="translate(0,0)"/>
</svg>
